<svg version="1" xmlns="http://www.w3.org/2000/svg" width="341.333" height="341.333" viewBox="0 0 256.000000 256.000000"><path d="M17.7 18.7c3 8.7 5.6 16.2 5.7 16.8.2.5.6 1.7.9 2.5.3.8 2.4 6.7 4.6 13C39 80.2 43.6 93.8 49.5 111c3.5 10.2 9.6 27.7 13.5 39 3.9 11.3 7.8 22.5 8.6 25 .8 2.5 1.9 5.4 2.4 6.5.5 1.1 1.4 3.8 2 6 .6 2.2 1.5 4.9 2 6 .9 1.8 5.7 15.7 16.3 47.3l4.2 12.2 29.4-.2 29.4-.3 1.4-4c.8-2.2 3.5-9.8 5.9-17 2.5-7.2 4.8-13.7 5.1-14.5.3-.8.7-2 .8-2.5.2-.6 1.5-4.4 2.9-8.5 4.4-12.4 13.6-39 16.3-47 1.3-4.1 2.8-8.4 3.3-9.5.5-1.1 1.5-4 2.3-6.5.8-2.5 5-14.4 9.2-26.5 4.2-12.1 7.8-22.7 8-23.5.2-.8 1.2-3.5 2.1-6 1.7-4.8 14-40.3 23-66.4 2.9-8.7 5.4-16.3 5.4-16.7 0-.5-14.5-.9-32.3-.9h-32.2l-13 39.2c-7.1 21.6-13 39.5-13 39.8-.4 2.4-24.1 73-24.5 73-.5 0-7.5-21-42.4-127.2L77.5 3H12.2l5.5 15.7z"/></svg>